<svg width="105" height="104" viewBox="0 0 105 104" fill="none" xmlns="http://www.w3.org/2000/svg">
<path fill-rule="evenodd" clip-rule="evenodd" d="M74.9407 87.2113C62.0322 81.6806 52.5235 74.3226 44.1931 63.4431L43.8988 63.0459C41.1137 59.5702 38.5095 55.7388 36.1591 51.6599C33.9169 47.7724 31.8421 43.9192 31.1079 39.546C30.4568 35.6762 30.2956 30.0498 33.2295 25.2138C34.4754 23.1598 36.1633 21.3824 38.1903 19.9347C37.7586 22.6315 37.8023 25.5549 38.3234 28.6541C39.1148 33.3611 41.3768 37.5617 43.6253 41.4638C46.0339 45.6394 48.6984 49.5581 51.5303 53.092L52.3041 54.0998C61.0443 65.6147 71.6814 73.7527 83.944 78.3047L74.9407 87.2113ZM31.19 85.176L21.5003 78.1904C29.2639 75.2617 36.4243 70.848 42.8224 65.0645C45.3382 68.3124 47.9964 71.2785 50.8325 73.9836C44.8764 78.9121 38.2745 82.68 31.19 85.176ZM40.628 18.4351C43.8593 16.7347 47.7031 15.7435 51.8579 15.6115L52.2854 15.6L53.5895 15.6115C57.6684 15.7404 61.4457 16.7003 64.6416 18.3435C65.563 21.4188 65.7128 24.9091 65.0857 28.7175C61.6516 27.0307 57.6757 26.0666 53.4876 25.9324L53.0092 25.922L51.6385 25.9345C47.6168 26.0614 43.7709 26.961 40.4231 28.5387C40.4086 28.4617 40.3878 28.3858 40.3753 28.3088C39.77 24.7073 39.8553 21.3887 40.628 18.4351ZM52.9229 51.4925C50.2355 48.1053 47.7125 44.3883 45.4266 40.4259C43.5879 37.2341 41.875 34.0632 40.9078 30.6208C44.0933 29.0421 47.8019 28.1362 51.7103 28.0125L52.1335 28.0021L53.4377 28.0125C57.5072 28.1414 61.3573 29.1169 64.6281 30.8194C63.6806 34.3908 61.9147 37.6585 60.0178 40.948C57.8525 44.7055 55.4636 48.2384 52.9229 51.4925ZM72.2159 25.2138C75.1487 30.0477 74.9896 35.6762 74.3386 39.546C73.6033 43.9192 71.5285 47.7724 69.2863 51.662C67.1303 55.3998 64.7643 58.9285 62.2423 62.166C59.4198 59.4662 56.7522 56.4679 54.2385 53.1929C56.9612 49.7505 59.5134 45.9888 61.8201 41.9859C64.0686 38.0859 66.3306 33.8832 67.121 29.1783C67.6826 25.8451 67.6826 22.7251 67.1407 19.8609C69.2166 21.3242 70.9471 23.1244 72.2159 25.2138ZM86.8654 77.6485C86.7853 77.297 86.5295 77.012 86.1883 76.8966C77.9609 74.0771 70.4604 69.6207 63.7722 63.5856C66.394 60.2347 68.8526 56.5781 71.0875 52.6999C73.336 48.802 75.597 44.6015 76.3905 39.8913C77.4066 33.8427 76.5777 28.3941 73.9933 24.1353C70.1359 17.7767 62.5325 13.8143 53.6561 13.5335L53.1611 13.52L51.7903 13.5335C42.9119 13.8143 35.3095 17.7767 31.4521 24.1353C28.8656 28.3962 28.0378 33.8447 29.0559 39.8913C29.8474 44.6015 32.1083 48.802 34.3579 52.6999C36.5606 56.523 38.99 60.1183 41.5547 63.4088C34.8248 69.523 27.2235 74.0626 18.9544 76.8966C18.5863 77.0224 18.32 77.3438 18.2628 77.7275C18.2056 78.1113 18.3689 78.4971 18.683 78.7249L30.4121 87.1791C30.591 87.3091 30.8052 87.3756 31.0205 87.3756C31.1339 87.3756 31.2472 87.3579 31.3575 87.3195C38.9588 84.7153 46.0267 80.7061 52.3769 75.4115C58.7989 81.2022 66.1257 85.7667 74.7733 89.3995C74.9033 89.4535 75.0406 89.4806 75.1768 89.4806C75.4441 89.4806 75.7093 89.3766 75.9079 89.18L86.5825 78.6188C86.8383 78.3671 86.9455 78 86.8654 77.6485Z" fill="#99146C"/>
<path fill-rule="evenodd" clip-rule="evenodd" d="M40.628 18.4351C43.8593 16.7347 47.7031 15.7436 51.8579 15.6115L52.2854 15.6001L53.5895 15.6115C57.6684 15.7405 61.4457 16.7004 64.6416 18.3436C65.563 21.4189 65.7128 24.9091 65.0857 28.7176C61.6516 27.0307 57.6757 26.0667 53.4876 25.9325L53.0092 25.9221L51.6385 25.9346C47.6168 26.0615 43.7709 26.9611 40.4231 28.5387C40.4086 28.4618 40.3878 28.3859 40.3753 28.3089C39.77 24.7074 39.8553 21.3887 40.628 18.4351Z" fill="#A64D87"/>
<path fill-rule="evenodd" clip-rule="evenodd" d="M72.2158 25.2137C75.1486 30.0476 74.9895 35.6761 74.3384 39.546C73.6031 43.9192 71.5283 47.7724 69.2861 51.662C67.1302 55.3997 64.7642 58.9284 62.2422 62.166C59.4196 59.4661 56.752 56.4678 54.2383 53.1928C56.9611 49.7504 59.5132 45.9888 61.8199 41.9858C64.0684 38.0858 66.3304 33.8832 67.1208 29.1782C67.6824 25.845 67.6824 22.725 67.1406 19.8608C69.2164 21.3241 70.947 23.1244 72.2158 25.2137Z" fill="#C860A4"/>
<path fill-rule="evenodd" clip-rule="evenodd" d="M31.1902 85.176L21.5005 78.1903C29.2641 75.2617 36.4246 70.8479 42.8226 65.0645C45.3384 68.3124 47.9966 71.2785 50.8327 73.9835C44.8766 78.9121 38.2747 82.68 31.1902 85.176Z" fill="#C860A4"/>
<path fill-rule="evenodd" clip-rule="evenodd" d="M74.9407 87.2111C62.0322 81.6804 52.5235 74.3224 44.1931 63.443L43.8988 63.0457C41.1137 59.57 38.5095 55.7387 36.1591 51.6598C33.9169 47.7723 31.8421 43.9191 31.1078 39.5459C30.4568 35.676 30.2956 30.0496 33.2294 25.2136C34.4753 23.1596 36.1633 21.3823 38.1902 19.9346C37.7586 22.6313 37.8023 25.5547 38.3233 28.6539C39.1148 33.361 41.3768 37.5615 43.6253 41.4636C46.0339 45.6392 48.6984 49.5579 51.5303 53.0919L52.3041 54.0996C61.0442 65.6145 71.6813 73.7525 83.944 78.3046L74.9407 87.2111Z" fill="#DC7BBB"/>
</svg>
