<svg width="105" height="104" viewBox="0 0 105 104" fill="none" xmlns="http://www.w3.org/2000/svg">
<g clip-path="url(#clip0_3838_27245)">
<path d="M65.9849 11.7415C70.7603 11.7415 75.3401 13.7579 78.7169 17.3473C82.0936 20.9366 83.9907 25.8048 83.9907 30.881V51.2016H47.991V30.881C47.991 25.807 49.8864 20.9408 53.2606 17.3518C56.6347 13.7628 61.2115 11.7448 65.9849 11.7415Z" fill="#EEA2A2"/>
<path d="M65.9849 92.2017C70.7603 92.2017 75.3401 90.1852 78.7169 86.5958C82.0936 83.0065 83.9907 78.1383 83.9907 73.0622V52.7415H47.991V73.0622C47.991 78.1361 49.8864 83.0024 53.2606 86.5913C56.6347 90.1803 61.2115 92.1983 65.9849 92.2017Z" fill="#FBECEC"/>
<path d="M35.9292 88.5089C44.2599 88.5089 51.0132 81.7133 51.0132 73.3305C51.0132 64.9477 44.2599 58.1521 35.9292 58.1521C27.5985 58.1521 20.8452 64.9477 20.8452 73.3305C20.8452 81.7133 27.5985 88.5089 35.9292 88.5089Z" fill="#9E7A7A"/>
<path d="M35.9293 56.3159C31.5134 56.3245 27.2736 58.0485 24.1048 61.1241C20.9361 64.1997 19.0864 68.3862 18.9461 72.7999C18.8337 72.9581 18.772 73.1467 18.7693 73.3407C18.7768 73.5339 18.838 73.7212 18.9461 73.8815C19.0564 77.2194 20.1471 80.4508 22.0823 83.1727C24.0174 85.8945 26.7112 87.9863 29.8275 89.187C32.9439 90.3877 36.3448 90.6441 39.6059 89.9242C42.8671 89.2044 45.8441 87.5402 48.1654 85.1392C50.4868 82.7382 52.0497 79.7069 52.6592 76.4233C53.2687 73.1398 52.8978 69.7494 51.5928 66.6753C50.2878 63.6012 48.1064 60.9794 45.3209 59.1372C42.5353 57.2949 39.2689 56.3137 35.9293 56.3159ZM35.9293 58.3959C39.7085 58.3997 43.3459 59.8352 46.1092 62.4132C48.8725 64.9913 50.5565 68.5205 50.8221 72.2903H21.0469C21.3124 68.5223 22.9949 64.9945 25.756 62.4167C28.5171 59.839 32.1519 58.4024 35.9293 58.3959ZM35.9293 88.2647C32.1519 88.2583 28.5171 86.8217 25.756 84.2439C22.9949 81.6661 21.3124 78.1384 21.0469 74.3703H50.8221C50.5565 78.1402 48.8725 81.6694 46.1092 84.2474C43.3459 86.8255 39.7085 88.2609 35.9293 88.2647Z" fill="#6B4311"/>
<path d="M66.1517 11.7415C61.0193 11.7497 56.0997 13.7929 52.4715 17.423C48.8433 21.0531 46.8028 25.9739 46.7973 31.1063V56.3159C46.7973 56.5917 46.9068 56.8562 47.1019 57.0512C47.2969 57.2463 47.5614 57.3559 47.8373 57.3559C48.1131 57.3559 48.3776 57.2463 48.5727 57.0512C48.7677 56.8562 48.8773 56.5917 48.8773 56.3159V53.0399H83.4365V72.8935C83.431 77.476 81.6081 81.8692 78.3678 85.1096C75.1275 88.3499 70.7342 90.1728 66.1517 90.1783C63.7867 90.1866 61.4458 89.7048 59.2763 88.7633C57.1069 87.8217 55.156 86.4409 53.5469 84.7079C53.3579 84.5065 53.0967 84.3885 52.8208 84.3797C52.5448 84.3709 52.2766 84.4721 52.0753 84.6611C51.8739 84.85 51.7559 85.1112 51.7471 85.3872C51.7383 85.6631 51.8395 85.9313 52.0285 86.1327C54.6821 88.9692 58.1278 90.9416 61.9175 91.7934C65.7072 92.6453 69.6656 92.3371 73.2778 90.9091C76.89 89.481 79.989 86.9991 82.1717 83.7861C84.3544 80.5731 85.5198 76.7777 85.5165 72.8935V31.1063C85.511 25.9721 83.469 21.0498 79.8386 17.4194C76.2082 13.7889 71.2858 11.747 66.1517 11.7415ZM48.8773 50.9599V31.1063C48.8207 28.8014 49.2259 26.5085 50.0688 24.3626C50.9118 22.2167 52.1755 20.2611 53.7857 18.6109C55.3958 16.9608 57.3199 15.6494 59.4445 14.7541C61.5691 13.8588 63.8513 13.3975 66.1569 13.3975C68.4624 13.3975 70.7447 13.8588 72.8693 14.7541C74.9939 15.6494 76.9179 16.9608 78.5281 18.6109C80.1382 20.2611 81.402 22.2167 82.2449 24.3626C83.0879 26.5085 83.493 28.8014 83.4365 31.1063V50.9599H48.8773Z" fill="#6B4311"/>
<path d="M75.7925 82.9295C75.6397 82.9297 75.4887 82.8963 75.3503 82.8316C75.2119 82.7669 75.0895 82.6725 74.9917 82.5551C74.8257 82.3435 74.7481 82.0758 74.7752 81.8081C74.8024 81.5405 74.9321 81.2939 75.1373 81.1199C76.0092 80.4044 76.7114 79.5043 77.1934 78.4846C77.6754 77.4649 77.9251 76.351 77.9245 75.2231V61.9631C77.9245 61.6873 78.0341 61.4227 78.2291 61.2277C78.4241 61.0327 78.6887 60.9231 78.9645 60.9231C79.2403 60.9231 79.5049 61.0327 79.6999 61.2277C79.8949 61.4227 80.0045 61.6873 80.0045 61.9631V75.1919C80.0094 76.627 79.6936 78.0451 79.08 79.3425C78.4664 80.6398 77.5706 81.7837 76.4581 82.6903C76.271 82.8453 76.0355 82.93 75.7925 82.9295Z" fill="#6B4311"/>
</g>
<defs>
<clipPath id="clip0_3838_27245">
<rect width="104" height="104" fill="white" transform="translate(0.142883)"/>
</clipPath>
</defs>
</svg>
