<svg xmlns="http://www.w3.org/2000/svg" width="57" height="57" fill="none" viewBox="0 0 57 57"><circle cx="28.5" cy="28.5" r="28.5" fill="#F8F8F8"/><path fill="#FCB3A7" fill-rule="evenodd" d="m29.97 16.818-3.287 1.154c-.156 1.495-1.153 2.8-2.555 3.292-1.404.493-2.996.097-4.06-1.012l-3.188 1.163 7.08 20.164 3.213-1.129c.17-1.499 1.14-2.76 2.55-3.256 1.41-.495 2.956-.117 4.033.986l-.007-.04 3.302-1.159zm-7.634 25.331-7.081-20.163c-.325-.926.14-1.934 1.036-2.248l3.197-1.123c.642-.226 1.35-.065 1.803.409.598.624 1.46.84 2.248.563s1.325-.983 1.403-1.847c.058-.652.51-1.22 1.152-1.445l3.287-1.155c.897-.315 1.889.181 2.214 1.107l7.081 20.164c.325.925-.139 1.932-1.036 2.247l-3.301 1.16c-.637.224-1.34.07-1.794-.397-.597-.614-1.453-.824-2.233-.55s-1.318.974-1.4 1.828c-.063.646-.514 1.206-1.15 1.429l-3.212 1.128c-.895.314-1.889-.18-2.214-1.107" clip-rule="evenodd"/><path fill="#FCB3A7" fill-rule="evenodd" d="m29.97 16.818-3.288 1.154c-.156 1.495-1.152 2.8-2.554 3.292-1.404.494-2.996.097-4.06-1.012l-3.189 1.163L23.96 41.58l3.213-1.129c.169-1.499 1.139-2.76 2.55-3.256 1.41-.495 2.955-.117 4.032.986l-.006-.04 3.302-1.159z" clip-rule="evenodd"/><path fill="#FCB3A7" fill-rule="evenodd" d="M28.281 24.327a.64.64 0 0 0-.807-.402.64.64 0 0 0-.38.819.64.64 0 0 0 .809.404.64.64 0 0 0 .378-.82m-2.811.987c-.443-1.262.19-2.638 1.415-3.067 1.223-.43 2.578.247 3.021 1.509s-.19 2.638-1.414 3.068-2.578-.247-3.022-1.51M26.771 33.716a.64.64 0 0 0-.806-.404.64.64 0 0 0-.379.82.64.64 0 0 0 .809.404.64.64 0 0 0 .376-.82m-2.81.987c-.443-1.263.19-2.639 1.414-3.069 1.222-.429 2.577.248 3.02 1.511.445 1.264-.19 2.64-1.411 3.069-1.224.43-2.579-.248-3.023-1.511M22.157 27.54a.9.9 0 0 1 .029-.677.845.845 0 0 1 1.15-.404l7.923 3.96a.91.91 0 0 1 .416 1.187.843.843 0 0 1-1.149.403l-7.923-3.959a.9.9 0 0 1-.446-.51" clip-rule="evenodd"/><path fill="#3B3B3B" fill-rule="evenodd" d="m39.547 18.97-3.478-.211c-.724 1.317-2.148 2.133-3.632 2.043-1.485-.09-2.799-1.072-3.349-2.507l-3.39-.165-1.292 21.332 3.398.206c.737-1.316 2.12-2.103 3.613-2.013s2.77 1.039 3.335 2.473l.01-.039 3.492.212zm-16.86 20.388 1.292-21.332c.059-.98.879-1.727 1.826-1.67l3.383.205c.68.04 1.27.463 1.504 1.076.308.807 1.02 1.34 1.853 1.39.834.051 1.602-.392 2.01-1.158.305-.578.942-.926 1.621-.885l3.478.21c.949.058 1.67.9 1.612 1.88l-1.292 21.33c-.06.98-.878 1.729-1.827 1.671l-3.493-.211c-.674-.041-1.261-.456-1.5-1.062-.311-.797-1.02-1.322-1.845-1.373s-1.592.387-1.998 1.142c-.309.571-.942.912-1.614.871l-3.399-.206c-.947-.057-1.67-.899-1.611-1.878" clip-rule="evenodd"/><path fill="#F8F8F8" fill-rule="evenodd" d="m39.546 18.969-3.477-.21c-.724 1.316-2.148 2.133-3.632 2.043-1.485-.09-2.799-1.072-3.349-2.507l-3.39-.165-1.293 21.332 3.4.206c.736-1.316 2.12-2.104 3.611-2.013 1.493.09 2.77 1.038 3.336 2.473l.01-.039 3.492.212z" clip-rule="evenodd"/><path fill="#3B3B3B" fill-rule="evenodd" d="M35.078 25.236a.64.64 0 0 0-.589-.684.64.64 0 0 0-.666.608.64.64 0 0 0 .588.686.64.64 0 0 0 .667-.61m-2.974-.18c.08-1.334 1.198-2.357 2.493-2.278 1.294.078 2.28 1.228 2.2 2.562-.081 1.337-1.199 2.359-2.493 2.28-1.295-.078-2.281-1.228-2.2-2.564M30.044 33.304a.64.64 0 0 0-.586-.685.64.64 0 0 0-.667.61.64.64 0 0 0 .588.685.64.64 0 0 0 .665-.61m-2.972-.18c.081-1.336 1.199-2.358 2.493-2.28s2.28 1.228 2.198 2.565c-.08 1.336-1.198 2.358-2.491 2.28s-2.28-1.228-2.2-2.565M28.188 25.823a.9.9 0 0 1 .29-.613.845.845 0 0 1 1.216.073l5.767 6.724a.91.91 0 0 1-.076 1.255.843.843 0 0 1-1.216-.074l-5.768-6.722a.9.9 0 0 1-.213-.643" clip-rule="evenodd"/></svg>