<svg xmlns="http://www.w3.org/2000/svg" width="104" height="104" fill="none" viewBox="0 0 104 104"><path fill="#F4C5A8" d="m44.5 75.5-26.5 5c5.5 6 8.5 7.5 14.5 9.5L58 81.5z"/><path fill="#F4C5A8" d="M31.273 89.119c13.447 14.456 56.576-2.798 54.111-14.082-.5-2.257-3.713-3.682-5.658-2.298-4.638 3.307-14.268 7.675-19.406 7.914-1.414.062-3.64.26-4.96-.27"/><path fill="#A66C16" fill-rule="evenodd" d="M83.484 71.6c1.326.557 2.54 1.697 2.876 3.22l.001.003c.383 1.755-.144 3.53-1.2 5.188-1.054 1.658-2.687 3.284-4.695 4.815-4.019 3.064-9.709 5.872-15.864 7.856-6.157 1.984-12.852 3.166-18.895 2.92-6.026-.244-11.55-1.916-15.166-5.803a1 1 0 1 1 1.464-1.362c3.108 3.341 8.017 4.934 13.783 5.167 5.749.233 12.203-.893 18.2-2.826 6-1.933 11.471-4.65 15.266-7.543 1.899-1.448 3.336-2.908 4.22-4.297s1.166-2.62.933-3.686c-.162-.732-.805-1.433-1.697-1.807-.888-.373-1.791-.328-2.404.108-2.396 1.708-6.032 3.66-9.706 5.214-3.65 1.544-7.479 2.756-10.233 2.885h-.003l-.512.025c-.606.032-1.34.07-2.058.063-.92-.01-1.964-.091-2.807-.43a1 1 0 1 1 .745-1.856c.478.192 1.206.277 2.083.286a30 30 0 0 0 1.888-.058q.294-.015.572-.028c2.383-.111 5.938-1.203 9.546-2.729 3.585-1.516 7.082-3.402 9.325-5v-.002c1.333-.947 3.01-.88 4.338-.323" clip-rule="evenodd"/><path fill="#F4C5A8" d="m45.438 76.263 9.516 3.88a3.92 3.92 0 0 0 4.93-1.727A3.64 3.64 0 0 0 58 73.34s-7.28-3.048-7.863-3.37c-10.4-5.315-27.622 2.444-31.616 10.462"/><path fill="#A66C16" fill-rule="evenodd" d="M31.579 69.266c6.23-2.325 13.459-3.024 19.014-.186l.03.016.032.016.092.045.305.139c.25.111.577.255.958.42.76.33 1.723.74 2.668 1.14a999 999 0 0 0 3.396 1.43l.305.129a4.64 4.64 0 0 1 2.39 6.465l-.886-.464.875.484a4.92 4.92 0 0 1-6.184 2.167h-.002l-9.512-3.878a1 1 0 0 1 .755-1.852l9.52 3.881a2.92 2.92 0 0 0 3.668-1.276 2.64 2.64 0 0 0-1.37-3.672l-.018-.007-.315-.132a884 884 0 0 1-6.085-2.58c-.712-.308-1.323-.578-1.542-.695-4.843-2.47-11.42-1.946-17.395.283-5.993 2.236-11.025 6.055-12.86 9.74a1 1 0 1 1-1.79-.891c2.157-4.333 7.734-8.403 13.95-10.722" clip-rule="evenodd"/><path fill="#F4C5A8" d="M81.484 82.67c3.994-3.12 1.633-7.842-3.12-4.711-5.96 3.941-8.996 6.312-19.438 7.852"/><path fill="#A66C16" fill-rule="evenodd" d="M84.06 77.473c1.03 1.773.245 4.249-1.966 5.977a.99.99 0 0 1-1.22-1.56c1.782-1.392 1.814-2.838 1.474-3.422-.164-.283-.47-.513-.991-.545-.548-.034-1.376.156-2.448.862l-1.054.7c-2.47 1.644-4.575 3.044-7.119 4.201-2.918 1.328-6.384 2.325-11.665 3.104a.99.99 0 1 1-.289-1.959c5.16-.76 8.434-1.719 11.134-2.947 2.39-1.087 4.355-2.394 6.84-4.046l1.062-.705.001-.001c1.305-.86 2.554-1.253 3.66-1.185 1.133.07 2.06.63 2.58 1.526" clip-rule="evenodd"/><path fill="#FCD97F" d="M51.272 61.443c14.377 0 26.031-11.654 26.031-26.03 0-14.378-11.654-26.032-26.031-26.032S25.241 21.035 25.241 35.412s11.654 26.031 26.031 26.031"/><path fill="#B9802B" fill-rule="evenodd" d="M51.272 10.38c-13.824 0-25.031 11.208-25.031 25.032s11.207 25.031 25.031 25.031 25.031-11.207 25.031-25.03c0-13.825-11.207-25.032-25.031-25.032M24.241 35.413c0-14.929 12.102-27.031 27.031-27.031s27.031 12.102 27.031 27.031-12.102 27.031-27.031 27.031-27.031-12.102-27.031-27.03" clip-rule="evenodd"/><path fill="#A66C16" fill-rule="evenodd" d="M41.134 23.66a1.1 1.1 0 0 1 1.1-1.1H60.32a1.1 1.1 0 0 1 0 2.2h-7.636v.77a13.6 13.6 0 0 1-.485 3.634h4.793a1.1 1.1 0 1 1 0 2.2h-5.608q-.279.594-.618 1.16a13.6 13.6 0 0 1-4.99 4.87 15.3 15.3 0 0 1 7.775 11.72 1.1 1.1 0 0 1-2.187.237 13.1 13.1 0 0 0-6.908-10.17l-.01-.004-1.265-.684a1.235 1.235 0 0 1 .008-2.215l1.295-.684a11.4 11.4 0 0 0 4.413-4.23h-3.335a1.1 1.1 0 0 1 0-2.2H49.9a11.4 11.4 0 0 0 .584-3.63v-.773h-8.25a1.1 1.1 0 0 1-1.1-1.1" clip-rule="evenodd"/></svg>