<svg width="105" height="104" viewBox="0 0 105 104" fill="none" xmlns="http://www.w3.org/2000/svg">
<path fill-rule="evenodd" clip-rule="evenodd" d="M77.2728 17.4634C71.3749 17.4634 66.5774 22.2609 66.5774 28.1587C66.5774 34.0566 71.3749 38.8541 77.2728 38.8541C83.1706 38.8541 87.9681 34.0566 87.9681 28.1587C87.9681 22.2609 83.1706 17.4634 77.2728 17.4634Z" fill="#FC9781"/>
<path fill-rule="evenodd" clip-rule="evenodd" d="M83.034 27.1819H78.2489V22.3979C78.2489 21.8582 77.8121 21.4214 77.2724 21.4214C76.7316 21.4214 76.2958 21.8582 76.2958 22.3979V27.1819H71.5118C70.971 27.1819 70.5342 27.6187 70.5342 28.1585C70.5342 28.6993 70.971 29.1361 71.5118 29.1361H76.2958V33.9201C76.2958 34.4599 76.7316 34.8967 77.2724 34.8967C77.8121 34.8967 78.2489 34.4599 78.2489 33.9201V29.1361H83.034C83.5748 29.1361 84.0105 28.6993 84.0105 28.1585C84.0105 27.6187 83.5748 27.1819 83.034 27.1819Z" fill="#605C57"/>
<path fill-rule="evenodd" clip-rule="evenodd" d="M77.2722 17.4632C71.3743 17.4632 66.5768 22.2607 66.5768 28.1585C66.5768 34.0564 71.3743 38.8539 77.2722 38.8539C83.17 38.8539 87.9675 34.0564 87.9675 28.1585C87.9675 22.2607 83.17 17.4632 77.2722 17.4632ZM77.2722 40.5075C70.4622 40.5075 64.9232 34.9685 64.9232 28.1585C64.9232 21.3486 70.4622 15.8096 77.2722 15.8096C84.0821 15.8096 89.6211 21.3486 89.6211 28.1585C89.6211 34.9685 84.0821 40.5075 77.2722 40.5075Z" fill="#605C57"/>
<path d="M31.741 60.2661V87.9897H11.5425V72.6756L31.741 60.2661Z" fill="#C49D86"/>
<path d="M52.5999 60.7939V78.4844L63.8214 71.7514L57.8807 64.2264L52.5999 60.7939Z" fill="#C39D85"/>
<path d="M51.9397 80.0685C46.7645 81.1245 44.7668 85.7012 44.4148 87.8575H31.741V60.3981L35.7017 57.4937C35.9217 58.4618 37.3916 60.3981 41.5105 60.3981C45.6294 60.3981 48.0674 58.4618 48.7715 57.4937L51.9397 60.3981V80.0685Z" fill="#FCEEE6"/>
<path d="M90.3572 82.8408C92.2584 83.3688 92.4694 86.6692 92.3372 88.2534H44.4149L45.2068 83.897L63.9532 72.1475H74.3828C78.9154 75.4919 88.456 82.3128 90.3572 82.8408Z" fill="#C76E37"/>
<path fill-rule="evenodd" clip-rule="evenodd" d="M69.2349 72.0419C63.024 72.0419 57.9727 66.0963 57.9727 58.7871C57.9727 58.5043 57.9935 58.2287 58.0091 57.9499C60.5582 56.5823 62.8888 54.7426 64.818 52.5679C68.8012 57.0399 74.3538 59.9852 80.3681 60.6862C79.5808 67.0967 74.8956 72.0419 69.2349 72.0419ZM53.2906 77.4156V62.2129L56.4855 64.5362C56.6301 64.6413 56.7923 64.6922 56.9577 64.713C58.0393 67.65 59.8967 70.1221 62.2336 71.7913L53.2906 77.4156ZM61.9798 48.6638C62.4395 49.449 62.945 50.2009 63.4858 50.9237C62.0142 52.6376 60.2836 54.1373 58.3721 55.3416C58.9774 52.7 60.2524 50.3819 61.9798 48.6638ZM69.2349 45.5323C75.401 45.5323 80.418 51.3937 80.4898 58.629C73.4396 57.77 67.1008 53.533 63.5939 47.3315C65.2548 46.1948 67.1778 45.5323 69.2349 45.5323ZM36.8898 57.2084V53.1878C38.5611 53.8149 40.3395 54.1622 42.1886 54.1622C44.0378 54.1622 45.8162 53.8149 47.4874 53.1878V57.2084C44.5224 60.0216 39.8559 60.0226 36.8898 57.2084ZM27.067 34.3617C27.067 33.9249 27.0962 33.4964 27.1232 33.0658C30.6145 31.2188 33.7896 28.6864 36.3844 25.6891C41.653 31.745 49.1067 35.7168 57.1802 36.5727C56.5042 42.9198 52.9693 48.2363 48.1291 50.672C48.1094 50.6803 48.0927 50.6949 48.073 50.7032C46.2644 51.6049 44.2749 52.102 42.1886 52.102C33.851 52.102 27.067 44.1439 27.067 34.3617ZM32.734 20.5369C33.435 21.7683 34.2118 22.9466 35.0636 24.0646C32.9046 26.6178 30.3035 28.8288 27.431 30.5365C28.185 26.5263 30.0955 23.0246 32.734 20.5369ZM57.3113 34.3617C57.3113 34.4126 57.305 34.4626 57.304 34.5146C47.6986 33.4673 39.0437 27.6963 34.3554 19.2141C36.6423 17.5792 39.3182 16.6193 42.1886 16.6193C50.5284 16.6193 57.3113 24.5774 57.3113 34.3617ZM90.2959 81.5475L76.024 71.9389C79.9282 69.2661 82.5573 64.3792 82.5573 58.7871C82.5573 50.3433 76.5804 43.4721 69.2349 43.4721C66.3822 43.4721 63.7416 44.5183 61.5722 46.2801C61.5326 46.3165 61.4848 46.3435 61.4526 46.383C58.1038 49.1681 55.9125 53.6849 55.9125 58.7871C55.9125 59.8032 55.9998 60.7964 56.1673 61.7584L49.5466 56.9442V52.2268C55.3446 49.0433 59.3715 42.2428 59.3715 34.3617C59.3715 23.4427 51.663 14.5601 42.1886 14.5601C38.5538 14.5601 35.1842 15.8757 32.4054 18.1054C32.3346 18.1574 32.2608 18.2073 32.2067 18.276C27.8574 21.8713 25.0078 27.7337 25.0078 34.3617C25.0078 42.2428 29.0337 49.0423 34.8306 52.2268V57.2136L13.2995 69.9702C11.311 71.1444 10.0745 73.3076 10.0745 75.6153V87.6107C10.0745 88.1796 10.5362 88.6403 11.1041 88.6403C11.673 88.6403 12.1347 88.1796 12.1347 87.6107V75.6153C12.1347 74.0325 12.9813 72.5484 14.3478 71.7424L30.8755 61.9508V87.3102C30.8755 87.879 31.3373 88.3397 31.9051 88.3397C32.474 88.3397 32.9358 87.879 32.9358 87.3102V60.7309L35.8259 59.019C37.6501 60.5894 39.9162 61.384 42.1886 61.384C44.5255 61.384 46.8562 60.5416 48.7074 58.8797L51.2304 60.7142V78.7114L46.773 81.5142C44.7845 82.6873 43.549 84.8505 43.549 87.1593C43.549 87.7282 44.0097 88.1889 44.5786 88.1889C45.1474 88.1889 45.6082 87.7282 45.6082 87.1593C45.6082 85.5765 46.4558 84.0924 47.8452 83.2729L64.2377 72.9737C65.7831 73.6955 67.4679 74.1011 69.2349 74.1011C70.9218 74.1011 72.5306 73.7246 74.0168 73.0642L89.1977 83.2874C90.5622 84.0924 91.4087 85.5765 91.4087 87.1593C91.4087 87.7282 91.8705 88.1889 92.4394 88.1889C93.0072 88.1889 93.4689 87.7282 93.4689 87.1593C93.4689 84.8505 92.2324 82.6873 90.2959 81.5475Z" fill="#605C57"/>
<path d="M32.734 20.5369C33.435 21.7683 34.2118 22.9466 35.0636 24.0646C32.9046 26.6178 30.3035 28.8288 27.431 30.5365C28.185 26.5263 30.0955 23.0246 32.734 20.5369Z" fill="#605C57"/>
<path d="M57.3113 34.3617C57.3113 34.4126 57.305 34.4626 57.304 34.5146C47.6986 33.4673 39.0437 27.6963 34.3554 19.2141C36.6423 17.5792 39.3182 16.6193 42.1886 16.6193C50.5284 16.6193 57.3113 24.5774 57.3113 34.3617Z" fill="#605C57"/>
<path d="M69.2349 45.5323C75.401 45.5323 80.418 51.3937 80.4898 58.629C73.4396 57.77 67.1008 53.533 63.5939 47.3315C65.2548 46.1948 67.1778 45.5323 69.2349 45.5323Z" fill="#605C57"/>
<path d="M61.9798 48.6638C62.4395 49.449 62.945 50.2009 63.4858 50.9237C62.0142 52.6376 60.2836 54.1373 58.3721 55.3416C58.9774 52.7 60.2524 50.3819 61.9798 48.6638Z" fill="#605C57"/>
<path fill-rule="evenodd" clip-rule="evenodd" d="M36.8898 57.2086V53.188C38.5611 53.8151 40.3395 54.1625 42.1886 54.1625C44.0377 54.1625 45.8161 53.8151 47.4874 53.188V57.2086C44.5223 60.0218 39.8559 60.0229 36.8898 57.2086Z" fill="#F4C5A8"/>
<path fill-rule="evenodd" clip-rule="evenodd" d="M69.2349 72.0419C63.0241 72.0419 57.9728 66.0962 57.9728 58.7871C57.9728 58.5042 57.9936 58.2286 58.0092 57.9499C60.5582 56.5823 62.8889 54.7425 64.8181 52.5679C68.8013 57.0399 74.3538 59.9852 80.3681 60.6861C79.5809 67.0967 74.8957 72.0419 69.2349 72.0419Z" fill="#F4C5A8"/>
<path fill-rule="evenodd" clip-rule="evenodd" d="M27.067 34.3615C27.067 33.9247 27.0961 33.4962 27.1232 33.0657C30.6145 31.2186 33.7896 28.6862 36.3844 25.689C41.653 31.7449 49.1067 35.7166 57.1802 36.5726C56.5042 42.9197 52.9693 48.2362 48.1291 50.6718C48.1093 50.6802 48.0927 50.6947 48.0729 50.703C46.2644 51.6047 44.2749 52.1018 42.1886 52.1018C33.8509 52.1018 27.067 44.1438 27.067 34.3615Z" fill="#F4C5A8"/>
</svg>
