<svg width="105" height="104" viewBox="0 0 105 104" fill="none" xmlns="http://www.w3.org/2000/svg">
<path d="M17.3479 64.6541L12.2866 74.6776C12.2866 89.2205 29.7214 94.1339 46.7817 94.1339C64.9669 94.1339 82.0272 85.4866 82.0272 74.6776L76.9654 64.6541L58.5927 54.8281L46.7817 67.9957L37.033 54.8281L17.3479 64.6541Z" fill="#E1F4F6"/>
<path fill-rule="evenodd" clip-rule="evenodd" d="M31.7419 30.7058C31.7419 30.2647 31.7715 29.8297 31.7991 29.3947C35.3903 27.4975 38.5435 24.9836 41.1963 21.9131C46.5428 28.0571 54.1041 32.0864 62.2975 32.9553C61.3489 41.8206 54.8965 48.708 47.085 48.708C38.6252 48.708 31.7419 40.632 31.7419 30.7058Z" fill="#F4C5A8"/>
<path fill-rule="evenodd" clip-rule="evenodd" d="M37.9083 17.6536C38.618 18.9024 39.4063 20.0961 40.2671 21.2285C38.0809 23.8159 35.4433 26.0563 32.5322 27.7881C33.299 23.7251 35.2361 20.1767 37.9083 17.6536Z" fill="#605C57"/>
<path fill-rule="evenodd" clip-rule="evenodd" d="M47.1632 13.6436C55.6251 13.6436 62.5084 21.7195 62.5084 31.6446C62.5084 31.6957 62.5023 31.7457 62.5023 31.7978C52.7558 30.7328 43.9743 24.8788 39.218 16.2739C41.54 14.6167 44.2541 13.6436 47.1632 13.6436Z" fill="#605C57"/>
<path fill-rule="evenodd" clip-rule="evenodd" d="M46.9996 13.918C39.1232 13.918 32.4918 21.3957 32.4918 30.9477C32.4918 40.4997 39.1232 47.9774 46.9996 47.9774C54.8761 47.9774 61.5076 40.4997 61.5076 30.9477C61.5076 21.3958 54.8761 13.918 46.9996 13.918ZM30.4918 30.9477C30.4918 20.5846 37.7465 11.918 46.9996 11.918C56.2528 11.918 63.5076 20.5846 63.5076 30.9477C63.5076 41.3108 56.2528 49.9774 46.9996 49.9774C37.7465 49.9774 30.4918 41.3108 30.4918 30.9477Z" fill="#605C57"/>
<path fill-rule="evenodd" clip-rule="evenodd" d="M37.6824 15.2267C38.1737 14.9743 38.7765 15.168 39.0288 15.6593C41.2707 20.024 44.5932 23.7419 48.6795 26.4584C52.7658 29.175 57.4797 30.7997 62.3719 31.1778C62.9226 31.2203 63.3345 31.7012 63.2919 32.2519C63.2494 32.8025 62.7685 33.2144 62.2179 33.1718C56.985 32.7675 51.943 31.0296 47.5723 28.124C43.2016 25.2183 39.6478 21.2417 37.2498 16.5731C36.9975 16.0818 37.1911 15.479 37.6824 15.2267Z" fill="#605C57"/>
<path fill-rule="evenodd" clip-rule="evenodd" d="M46.9416 67.3716L37.2352 56.6263C37.4723 56.2144 37.7303 55.8192 38.0111 55.4365L39.5534 54.6929C41.6001 56.5056 44.196 57.5061 46.953 57.5061C49.8348 57.5061 52.544 56.4141 54.6303 54.4402L56.7238 55.4521C56.8496 55.5863 56.9578 55.7339 57.0784 55.8712L46.9416 67.3716Z" fill="#98B6BA"/>
<path fill-rule="evenodd" clip-rule="evenodd" d="M53.282 48.1606V53.3232C49.7897 56.6782 44.2527 56.6782 40.7583 53.3232V48.2022C42.6948 49.0405 44.7831 49.5199 46.9702 49.5199C49.1948 49.5199 51.3174 49.0249 53.282 48.1606Z" fill="#F4C5A8"/>
<path fill-rule="evenodd" clip-rule="evenodd" d="M42.0213 20.3511C42.452 20.6969 42.5208 21.3263 42.175 21.757C39.4839 25.1086 36.1242 27.863 32.31 29.8447C31.8199 30.0993 31.2162 29.9084 30.9616 29.4183C30.707 28.9282 30.8978 28.3245 31.3879 28.0699C34.9557 26.2162 38.0983 23.6399 40.6155 20.5048C40.9613 20.0742 41.5907 20.0054 42.0213 20.3511Z" fill="#605C57"/>
<path fill-rule="evenodd" clip-rule="evenodd" d="M40.8706 52.3779C41.2231 52.8031 41.1641 53.4335 40.739 53.786C39.5069 54.8074 38.4926 56.0659 37.7563 57.4869C36.6278 59.7739 36.2698 62.365 36.7359 64.8725L36.7374 64.8808L37.9079 71.8266C37.9997 72.3712 37.6326 72.8871 37.088 72.9789C36.5434 73.0707 36.0275 72.7036 35.9357 72.159L34.768 65.2296C34.2247 62.2966 34.6454 59.2664 35.9675 56.5924L35.9715 56.5842L35.9757 56.5761C36.8356 54.9135 38.0214 53.441 39.4625 52.2463C39.8877 51.8938 40.5181 51.9527 40.8706 52.3779Z" fill="#605C57"/>
<path fill-rule="evenodd" clip-rule="evenodd" d="M40.2361 46.7988C40.7884 46.7988 41.2361 47.2465 41.2361 47.7988V54.7167L20.6521 64.6511C20.6519 64.6512 20.6523 64.651 20.6521 64.6511C18.983 65.4601 17.6616 66.845 16.9322 68.5503L16.9318 68.5514L14.4196 74.4068C14.2019 74.9143 13.6139 75.1492 13.1063 74.9315C12.5988 74.7137 12.3639 74.1257 12.5816 73.6182L15.0933 67.7639C15.0933 67.764 15.0934 67.7637 15.0933 67.7639C16.0124 65.6152 17.6769 63.8704 19.7798 62.8513L39.2361 53.4612V47.7988C39.2361 47.2465 39.6838 46.7988 40.2361 46.7988Z" fill="#605C57"/>
<path fill-rule="evenodd" clip-rule="evenodd" d="M53.8692 46.4412C54.4215 46.4412 54.8692 46.8889 54.8692 47.4412V53.1037L74.3144 62.493C74.3143 62.4929 74.3144 62.493 74.3144 62.493C76.4215 63.5101 78.0899 65.2549 79.0115 67.4055L81.6398 73.5412C81.8573 74.0489 81.622 74.6367 81.1144 74.8542C80.6067 75.0716 80.0188 74.8364 79.8014 74.3287L77.1732 68.1933C76.4417 66.4863 75.1175 65.1014 73.445 64.2941L52.8692 54.3589V47.4412C52.8692 46.8889 53.3169 46.4412 53.8692 46.4412Z" fill="#605C57"/>
<path fill-rule="evenodd" clip-rule="evenodd" d="M36.9403 69.8007C38.9055 69.589 40.8837 70.0604 42.5422 71.1356C44.2006 72.2106 45.4383 73.8239 46.0473 75.7041C46.0473 75.704 46.0474 75.7042 46.0473 75.7041L48.2209 82.3695C48.6397 83.6545 48.6207 85.042 48.1672 86.3149C47.7136 87.5879 46.8509 88.6746 45.7139 89.4051C45.2493 89.7037 44.6306 89.569 44.3321 89.1044C44.0335 88.6397 44.1682 88.0211 44.6328 87.7225C45.3977 87.2311 45.978 86.5 46.2832 85.6436C46.5884 84.7872 46.6011 83.8539 46.3194 82.9896C46.3194 82.9896 46.3194 82.9896 46.3194 82.9896L44.1454 76.3226L44.1448 76.3207C43.6773 74.8774 42.7273 73.639 41.4543 72.8138C40.1816 71.9887 38.6636 71.6269 37.1555 71.7891C37.1552 71.7891 37.1548 71.7892 37.1545 71.7892L36.2776 71.8857L36.2743 71.886C34.7709 72.0464 33.3679 72.7169 32.2989 73.7859C31.2305 74.8543 30.5601 76.2563 30.3993 77.7587L29.6942 84.7318C29.6941 84.7319 29.6942 84.7318 29.6942 84.7318C29.6028 85.6368 29.8141 86.5467 30.2951 87.3188C30.776 88.0909 31.4995 88.6816 32.3522 88.9986C32.8699 89.191 33.1335 89.7667 32.9411 90.2844C32.7486 90.802 32.173 91.0657 31.6553 90.8732C30.3879 90.4021 29.3125 89.524 28.5975 88.3763C27.8826 87.2286 27.5684 85.8762 27.7043 84.5309L28.4103 77.5492C28.6191 75.5913 29.4923 73.764 30.8846 72.3717C32.2766 70.9798 34.1032 70.1066 36.0605 69.8975C36.0611 69.8974 36.0616 69.8974 36.0622 69.8973L36.9381 69.801L37.0474 70.7952L36.9403 69.8007Z" fill="#605C57"/>
<path fill-rule="evenodd" clip-rule="evenodd" d="M43.5601 88.3271C43.3813 88.3271 43.2363 88.4721 43.2363 88.6509C43.2363 88.8297 43.3813 88.9746 43.5601 88.9746C43.7388 88.9746 43.8838 88.8297 43.8838 88.6509C43.8838 88.4721 43.7388 88.3271 43.5601 88.3271ZM41.2363 88.6509C41.2363 87.3675 42.2767 86.3271 43.5601 86.3271C44.8434 86.3271 45.8838 87.3675 45.8838 88.6509C45.8838 89.9342 44.8434 90.9746 43.5601 90.9746C42.2767 90.9746 41.2363 89.9342 41.2363 88.6509Z" fill="#605C57"/>
<path d="M43.2363 88.6509C43.2363 88.4721 43.3813 88.3271 43.5601 88.3271C43.7388 88.3271 43.8838 88.4721 43.8838 88.6509C43.8838 88.8297 43.7388 88.9746 43.5601 88.9746C43.3813 88.9746 43.2363 88.8297 43.2363 88.6509Z" fill="#605C57"/>
<path fill-rule="evenodd" clip-rule="evenodd" d="M33.4727 89.5349C33.2939 89.5349 33.149 89.6798 33.149 89.8586C33.149 90.0374 33.2939 90.1824 33.4727 90.1824C33.6515 90.1824 33.7964 90.0374 33.7964 89.8586C33.7964 89.6798 33.6515 89.5349 33.4727 89.5349ZM31.149 89.8586C31.149 88.5753 32.1894 87.5349 33.4727 87.5349C34.7561 87.5349 35.7964 88.5753 35.7964 89.8586C35.7964 91.142 34.7561 92.1824 33.4727 92.1824C32.1894 92.1824 31.149 91.142 31.149 89.8586Z" fill="#605C57"/>
<path d="M33.149 89.8586C33.149 89.6798 33.2939 89.5349 33.4727 89.5349C33.6515 89.5349 33.7964 89.6798 33.7964 89.8586C33.7964 90.0374 33.6515 90.1824 33.4727 90.1824C33.2939 90.1824 33.149 90.0374 33.149 89.8586Z" fill="#605C57"/>
<path fill-rule="evenodd" clip-rule="evenodd" d="M39.6935 53.3815C40.084 52.991 40.7171 52.991 41.1077 53.3815C42.6832 54.957 44.82 55.8421 47.0481 55.8421C49.2762 55.8421 51.4131 54.957 52.9886 53.3815L54.4028 54.7957C52.4522 56.7463 49.8066 57.8421 47.0481 57.8421C44.2895 57.8421 41.6441 56.7463 39.6935 54.7957C39.3029 54.4052 39.3029 53.7721 39.6935 53.3815Z" fill="#605C57"/>
<path fill-rule="evenodd" clip-rule="evenodd" d="M58.8689 55.078C59.2831 55.4433 59.3229 56.0752 58.9576 56.4895L47.0573 69.9869L35.7743 57.5135C35.4038 57.1039 35.4355 56.4715 35.845 56.1011C36.2546 55.7306 36.887 55.7622 37.2575 56.1718L47.0382 66.9844L57.4575 55.1668C57.8227 54.7525 58.4546 54.7128 58.8689 55.078Z" fill="#605C57"/>
<path d="M91.2553 86.3332L82.4265 71.0412L74.0266 75.8909L82.8555 91.1829L85.7497 86.4966L91.2553 86.3332Z" fill="#4A919C"/>
<path fill-rule="evenodd" clip-rule="evenodd" d="M73.1606 76.3907C72.8844 75.9124 73.0483 75.3008 73.5266 75.0247L81.9265 70.175C82.4048 69.8988 83.0164 70.0627 83.2925 70.541L92.1214 85.833C92.2973 86.1378 92.3001 86.5127 92.1287 86.8201C91.9572 87.1275 91.6368 87.3221 91.285 87.3326L86.3176 87.48L83.7063 91.7082C83.5213 92.0076 83.1925 92.1878 82.8406 92.1826C82.4887 92.1774 82.1654 91.9875 81.9894 91.6827L73.1606 76.3907ZM75.3926 76.2567L82.8844 89.2328L84.8989 85.9709C85.0756 85.6849 85.3841 85.5068 85.7201 85.4968L89.5522 85.3831L82.0605 72.407L75.3926 76.2567Z" fill="#4A919C"/>
<path d="M61.2584 86.3332L70.0872 71.0412L78.4871 75.8909L69.6583 91.1829L66.764 86.4966L61.2584 86.3332Z" fill="#4A919C"/>
<path fill-rule="evenodd" clip-rule="evenodd" d="M79.3531 76.3907C79.6293 75.9124 79.4654 75.3008 78.9871 75.0247L70.5872 70.175C70.1089 69.8988 69.4974 70.0627 69.2212 70.541L60.3924 85.833C60.2164 86.1378 60.2136 86.5127 60.3851 86.8201C60.5565 87.1275 60.8769 87.3221 61.2287 87.3326L66.1961 87.48L68.8075 91.7082C68.9924 92.0076 69.3212 92.1878 69.6731 92.1826C70.0251 92.1774 70.3483 91.9875 70.5243 91.6827L79.3531 76.3907ZM77.1211 76.2567L69.6294 89.2328L67.6148 85.9709C67.4382 85.6849 67.1297 85.5068 66.7937 85.4968L62.9615 85.3831L70.4533 72.407L77.1211 76.2567Z" fill="#4A919C"/>
<path d="M78.116 51.1217C78.5522 50.8337 79.0497 50.6518 79.5687 50.5905C80.0878 50.5292 80.614 50.5903 81.1053 50.7687C81.5965 50.9472 82.0392 51.2382 82.3979 51.6183C82.7566 51.9985 83.0213 52.4574 83.1709 52.9582C83.3562 53.585 83.7212 54.1436 84.2209 54.565C84.7205 54.9864 85.3328 55.2519 85.9819 55.3287C86.5014 55.3879 86.9999 55.5681 87.4372 55.8548C87.8745 56.1414 88.2385 56.5266 88.5 56.9794C88.7614 57.4323 88.9131 57.9401 88.9428 58.4621C88.9725 58.9842 88.8794 59.5059 88.671 59.9855C88.4119 60.5881 88.3346 61.2532 88.4487 61.8992C88.5627 62.5451 88.8631 63.1436 89.3128 63.621C89.6713 64.001 89.936 64.4595 90.0856 64.9599C90.2353 65.4604 90.2658 65.989 90.1747 66.5034C90.0837 67.0178 89.8736 67.5037 89.5613 67.9224C89.2489 68.3412 88.843 68.681 88.3759 68.9149C87.7891 69.2082 87.3015 69.6674 86.9734 70.2354C86.6452 70.8034 86.4911 71.4552 86.53 72.11C86.561 72.6316 86.4695 73.1532 86.2629 73.6331C86.0563 74.113 85.7403 74.5379 85.3401 74.8738C84.94 75.2098 84.4667 75.4475 83.9583 75.5679C83.4499 75.6884 82.9203 75.6882 82.412 75.5675C81.7742 75.4145 81.1056 75.4524 80.4892 75.6765C79.8728 75.9006 79.3358 76.3009 78.9452 76.8277C78.6329 77.2464 78.2272 77.5865 77.7604 77.8207C77.2935 78.055 76.7784 78.177 76.256 78.177C75.7337 78.177 75.2186 78.055 74.7517 77.8207C74.2849 77.5865 73.8791 77.2464 73.5669 76.8277C73.1774 76.3008 72.6413 75.9003 72.0256 75.6762C71.4099 75.4521 70.7418 75.4143 70.1047 75.5675C69.5962 75.6881 69.0665 75.6881 68.5579 75.5677C68.0493 75.4472 67.5758 75.2096 67.1754 74.8738C66.7749 74.5379 66.4584 74.1131 66.2513 73.6332C66.0441 73.1534 65.9519 72.6318 65.9821 72.11C66.0221 71.4556 65.8689 70.8039 65.5415 70.2358C65.2142 69.6678 64.7271 69.2084 64.1409 68.9149C63.673 68.6818 63.2663 68.3423 62.9534 67.9236C62.6405 67.5049 62.43 67.0186 62.3389 66.5039C62.2478 65.9892 62.2786 65.4603 62.4288 64.9597C62.579 64.459 62.8445 64.0005 63.2039 63.621C63.654 63.1437 63.9542 62.5449 64.0674 61.8988C64.1807 61.2526 64.102 60.5874 63.841 59.9855C63.6337 59.5059 63.5414 58.9843 63.5716 58.4626C63.6018 57.9409 63.7536 57.4336 64.0149 56.981C64.2762 56.5285 64.6398 56.1434 65.0765 55.8565C65.5133 55.5696 66.0111 55.3888 66.5302 55.3287C67.1786 55.2501 67.7901 54.984 68.2894 54.5629C68.7887 54.1418 69.1543 53.5841 69.3411 52.9582C69.4907 52.4574 69.7555 51.9985 70.1142 51.6183C70.4729 51.2382 70.9156 50.9472 71.4068 50.7687C71.8981 50.5903 72.4243 50.5292 72.9434 50.5905C73.4624 50.6518 73.9599 50.8337 74.3961 51.1217C74.947 51.4887 75.5941 51.6845 76.256 51.6845C76.9179 51.6845 77.5651 51.4887 78.116 51.1217Z" fill="#BAF6FF"/>
<path fill-rule="evenodd" clip-rule="evenodd" d="M71.7483 51.7086C72.0929 51.5834 72.462 51.5406 72.8261 51.5836L78.6683 51.9553C78.974 51.7538 79.3225 51.6265 79.686 51.5836C80.0501 51.5406 80.4192 51.5834 80.7638 51.7086C81.1084 51.8338 81.4189 52.0379 81.6705 52.3046C81.9217 52.5709 82.1073 52.8922 82.2123 53.2429C82.4532 54.0568 82.9273 54.7822 83.5762 55.3294C84.2254 55.8769 85.021 56.222 85.8644 56.3218L85.9819 55.3287L85.8687 56.3223C86.2329 56.3637 86.5823 56.4901 86.8889 56.6911C87.1955 56.8921 87.4507 57.1621 87.634 57.4795C87.8173 57.7969 87.9236 58.1529 87.9444 58.5189C87.9653 58.8849 87.9 59.2507 87.7539 59.5869L87.7523 59.5905C87.4162 60.3722 87.316 61.2351 87.4639 62.073C87.6118 62.9109 88.0019 63.6878 88.5854 64.3072C88.837 64.5738 89.0226 64.8954 89.1275 65.2464C89.2325 65.5975 89.2539 65.9683 89.19 66.3291C89.1262 66.6899 88.9788 67.0308 88.7597 67.3245C88.5407 67.6181 88.2561 67.8564 87.9287 68.0205C87.1668 68.4014 86.5335 68.9976 86.1075 69.7351C85.6814 70.4726 85.4812 71.3192 85.5318 72.1694C85.5535 72.5353 85.4893 72.9011 85.3444 73.2376C85.1995 73.5742 84.9778 73.8723 84.6971 74.108C84.4164 74.3436 84.0845 74.5104 83.7278 74.5949C83.3715 74.6793 83.0005 74.6793 82.6444 74.5949C81.8162 74.3964 80.948 74.4457 80.1475 74.7367C79.3473 75.0276 78.6501 75.5472 78.1427 76.231C77.9236 76.5244 77.6392 76.7627 77.3119 76.9269C76.9842 77.0913 76.6227 77.177 76.256 77.177C75.8894 77.177 75.5279 77.0913 75.2002 76.9269C74.873 76.7628 74.5887 76.5246 74.3697 76.2315C73.8635 75.5475 73.1673 75.0276 72.3677 74.7365C71.5678 74.4454 70.7 74.3961 69.8725 74.5948C69.5161 74.6791 69.1449 74.679 68.7883 74.5946C68.4313 74.51 68.099 74.3432 67.8179 74.1076C67.5369 73.8719 67.3148 73.5737 67.1693 73.2368C67.0241 72.9005 66.9594 72.535 66.9803 72.1692C67.0319 71.3198 66.8329 70.4739 66.408 69.7366C65.9828 68.9987 65.3501 68.402 64.5886 68.0207L64.1408 68.9151L63.6949 69.8099C63.0872 69.5071 62.5589 69.0661 62.1524 68.5223C61.7459 67.9784 61.4726 67.3468 61.3542 66.6782C61.2359 66.0096 61.2759 65.3226 61.471 64.6723C61.666 64.0224 62.0105 63.4272 62.4769 62.9343C62.7925 62.5994 63.003 62.1794 63.0825 61.7261C63.1619 61.2726 63.1067 60.8057 62.9235 60.3832C62.6542 59.7604 62.534 59.0823 62.5732 58.4049C62.6124 57.7274 62.8096 57.0686 63.1489 56.481C63.4882 55.8933 63.9604 55.3932 64.5275 55.0207C65.0938 54.6487 65.7391 54.4141 66.4121 54.3357C66.8664 54.2802 67.2948 54.0935 67.6447 53.7984C67.9952 53.5028 68.2518 53.1114 68.3829 52.6721C68.5772 52.0218 68.921 51.4257 69.3868 50.9321C69.8526 50.4384 70.4275 50.0606 71.0654 49.8288C71.7032 49.5971 72.3866 49.5178 73.0606 49.5974C73.7347 49.677 74.3807 49.9132 74.9471 50.2871L74.3961 51.1217L74.9506 50.2894C75.3372 50.5471 75.7914 50.6845 76.256 50.6845C76.7206 50.6845 77.1749 50.547 77.5615 50.2894L77.565 50.2871C78.1314 49.9132 78.7774 49.677 79.4515 49.5974C80.1256 49.5178 80.8089 49.5971 81.4467 49.8288C82.0847 50.0606 82.6595 50.4384 83.1252 50.9321C83.591 51.4257 83.9348 52.0216 84.1291 52.6719L83.1709 52.9582L84.1299 52.6748C84.2597 53.1139 84.5155 53.5053 84.8656 53.8005C85.2152 54.0954 85.6435 54.2813 86.0975 54.3354C86.7715 54.4126 87.4181 54.6465 87.9854 55.0185C88.5534 55.3908 89.0263 55.8911 89.3659 56.4794C89.7056 57.0676 89.9026 57.7272 89.9412 58.4053C89.9798 59.0827 89.8591 59.7597 89.589 60.3821C89.4075 60.8051 89.3534 61.2719 89.4334 61.7253C89.5136 62.1792 89.7246 62.5998 90.0407 62.9353C90.5059 63.4285 90.8494 64.0237 91.0437 64.6735C91.2381 65.3234 91.2776 66.0098 91.1594 66.6777C91.0412 67.3457 90.7684 67.9767 90.3628 68.5204C89.9572 69.0641 89.4301 69.5054 88.8235 69.8091C88.412 70.0148 88.0694 70.3372 87.8393 70.7356C87.6091 71.134 87.5009 71.5913 87.5283 72.0506C87.5685 72.7279 87.4497 73.4053 87.1814 74.0285C86.9131 74.6517 86.5027 75.2035 85.9831 75.6397C85.4635 76.076 84.849 76.3846 84.1888 76.541C83.5287 76.6974 82.841 76.6972 82.1809 76.5404L82.412 75.5675L82.1788 76.5399C81.7316 76.4327 81.2629 76.4593 80.8308 76.6163C80.3987 76.7734 80.0223 77.0541 79.7484 77.4234L78.9451 76.8276L79.7468 77.4255C79.3415 77.969 78.8149 78.4104 78.2088 78.7145C77.6028 79.0186 76.9341 79.177 76.256 79.177C75.578 79.177 74.9093 79.0186 74.3033 78.7145C73.6973 78.4105 73.1706 77.9691 72.7652 77.4255L72.7628 77.4222C72.49 77.0532 72.1147 76.7728 71.6836 76.6159C71.2525 76.459 70.7847 76.4325 70.3386 76.5398L70.1047 75.5675L70.3355 76.5405C69.6752 76.6971 68.9876 76.6971 68.3275 76.5407C67.6673 76.3844 67.0527 76.076 66.5328 75.64C66.0129 75.204 65.6021 74.6525 65.3332 74.0297C65.0642 73.4067 64.9446 72.7296 64.9837 72.0523L65.9821 72.11L64.9839 72.049C65.012 71.5902 64.9046 71.1333 64.6751 70.7351C64.4456 70.3369 64.1041 70.0149 63.6932 69.8091L64.1408 68.9151L64.5869 68.0199C64.2589 67.8564 63.9738 67.6184 63.7544 67.3249C63.535 67.0314 63.3875 66.6905 63.3236 66.3296C63.2597 65.9688 63.2813 65.598 63.3866 65.247C63.4919 64.896 63.678 64.5747 63.93 64.3086L63.2039 63.621L63.9314 64.307C64.5157 63.6875 64.9054 62.9102 65.0524 62.0714C65.1994 61.2329 65.0971 60.3693 64.7587 59.5882C64.6134 59.2519 64.5487 58.8862 64.5699 58.5204C64.5911 58.1545 64.6976 57.7985 64.8809 57.4811C65.0642 57.1637 65.3192 56.8935 65.6256 56.6923C65.7614 56.6031 65.9056 56.5285 66.0558 56.4694L66.5302 55.3287L70.2993 53.2442C70.4043 52.893 70.59 52.5712 70.8415 52.3046C71.0931 52.0379 71.4037 51.8338 71.7483 51.7086ZM66.6452 56.322L66.5302 55.3287L66.0558 56.4694C66.2444 56.3952 66.4425 56.3455 66.6452 56.322ZM66.5302 55.3287L66.6504 56.3214C67.4922 56.2195 68.2859 55.874 68.9341 55.3273C69.5822 54.7807 70.0567 54.0566 70.2993 53.2442L66.5302 55.3287ZM76.256 52.6845C77.1144 52.6845 77.9537 52.4308 78.6683 51.9553L72.8261 51.5836C73.1896 51.6265 73.538 51.7538 73.8437 51.9552C74.5583 52.4308 75.3976 52.6845 76.256 52.6845Z" fill="#4A919C"/>
<path fill-rule="evenodd" clip-rule="evenodd" d="M82.59 59.6135C82.9881 59.9963 83.0004 60.6294 82.6175 61.0274L74.8506 69.103C74.6594 69.3017 74.3947 69.4127 74.119 69.4097C73.8432 69.4067 73.581 69.29 73.3942 69.0872L69.8816 65.2726C69.5075 64.8664 69.5335 64.2337 69.9398 63.8596C70.3461 63.4855 70.9787 63.5116 71.3528 63.9179L74.1456 66.9507L81.1761 59.641C81.5589 59.243 82.1919 59.2306 82.59 59.6135Z" fill="#4A919C"/>
</svg>
