<svg width="105" height="104" viewBox="0 0 105 104" fill="none" xmlns="http://www.w3.org/2000/svg">
<path d="M32.5512 53.3274H18.583V85.9077C23.0347 89.5387 21.1316 92.4766 32.5512 71.3772V53.3274Z" fill="#FBD6A9"/>
<path fill-rule="evenodd" clip-rule="evenodd" d="M33.1518 38.4033H36.7453C37.2419 38.4033 37.6444 38.8059 37.6444 39.3025C37.6444 39.7991 37.2419 40.2016 36.7453 40.2016H33.4504V72.2465C33.4504 72.7431 33.0478 73.1457 32.5512 73.1457C32.0546 73.1457 31.6521 72.7431 31.6521 72.2465V39.997C31.6425 39.5952 31.7887 39.2051 32.0603 38.9084C32.3364 38.6067 32.7201 38.4258 33.1284 38.4045L33.1518 38.4033Z" fill="#1395BF"/>
<path d="M87.305 39.7463L87.5534 73.9417C87.5693 76.1322 85.7979 77.9165 83.6074 77.9165L63.2649 45.2229V40.0121L87.305 39.7463Z" fill="#ADD6B8"/>
<path fill-rule="evenodd" clip-rule="evenodd" d="M13.0391 39.3025C13.0391 38.8059 13.4416 38.4033 13.9382 38.4033H17.5318L17.5552 38.4045C17.9638 38.4258 18.3472 38.6069 18.6232 38.9084C18.8947 39.2051 19.041 39.5952 19.0314 39.997V83.4845L19.0314 83.4906C19.0258 84.3094 19.1567 85.1234 19.4186 85.8991C19.5764 86.2307 19.9264 86.7584 20.4515 87.2007C20.9857 87.6507 21.662 87.9817 22.4802 87.9817C22.9768 87.9817 23.3793 88.3843 23.3793 88.8809C23.3793 89.3775 22.9768 89.78 22.4802 89.78C21.1404 89.78 20.068 89.2289 19.293 88.5761C18.5284 87.9321 18.015 87.1593 17.764 86.6056L17.7465 86.567L17.7327 86.5271C17.3954 85.5474 17.2264 84.5176 17.2331 83.4815V40.2016H13.9382C13.4416 40.2016 13.0391 39.7991 13.0391 39.3025Z" fill="#1395BF"/>
<path fill-rule="evenodd" clip-rule="evenodd" d="M88.1828 26.8489H91.7763C92.2729 26.8489 92.6754 27.2514 92.6754 27.748C92.6754 28.2446 92.2729 28.6472 91.7763 28.6472H88.4814V75.1576C88.4814 76.6474 87.2737 77.8551 85.7839 77.8551H82.2738C81.7772 77.8551 81.3746 77.4525 81.3746 76.9559C81.3746 76.4593 81.7772 76.0568 82.2738 76.0568H85.7839C86.2805 76.0568 86.6831 75.6542 86.6831 75.1576V28.4426C86.6735 28.0408 86.8198 27.6507 87.0913 27.354C87.3674 27.0523 87.7511 26.8713 88.1595 26.8501L88.1828 26.8489Z" fill="#1395BF"/>
<path fill-rule="evenodd" clip-rule="evenodd" d="M83.8414 34.2849C83.8414 33.7883 84.244 33.3857 84.7406 33.3857H86.4968C86.9933 33.3857 87.3959 33.7883 87.3959 34.2849C87.3959 34.7815 86.9933 35.1841 86.4968 35.1841H84.7406C84.244 35.1841 83.8414 34.7815 83.8414 34.2849Z" fill="#1395BF"/>
<path d="M42.8277 55.6318L21.6066 91.0986H90.7751L69.2994 55.6318H42.8277Z" fill="#FB9F9F"/>
<path fill-rule="evenodd" clip-rule="evenodd" d="M48.942 12.4353C49.219 12.1583 49.5947 12.0027 49.9864 12.0027H62.3837C62.7756 12.0027 63.1511 12.1585 63.4279 12.4353C63.7047 12.7121 63.8605 13.0876 63.8605 13.4795V44.5713L91.458 89.7516L91.4587 89.7527C91.5953 89.9772 91.6697 90.2341 91.6739 90.4971C91.6781 90.7604 91.6118 91.0195 91.4825 91.248C91.3531 91.4767 91.1649 91.6669 90.9374 91.7987C90.7113 91.9297 90.4545 91.9982 90.1934 91.9976C90.1918 91.9976 90.1902 91.9976 90.1885 91.9976L90.1938 91.0984L90.1934 91.9976H22.1635C21.903 91.9939 21.6483 91.9213 21.425 91.7875C21.2016 91.6536 21.0177 91.463 20.8917 91.2351C20.7658 91.0072 20.7023 90.7501 20.7078 90.4898C20.7133 90.2292 20.7877 89.9749 20.923 89.7527L20.9236 89.7516L48.5095 44.59V44.675H48.7688L49.3277 44.9754L48.8359 44.675H49.4087L48.8034 44.6551L48.5604 44.5067L48.5095 44.59V13.4795C48.5095 13.0882 48.6648 12.7125 48.942 12.4353ZM48.7273 44.6526L48.5357 44.5497C48.5201 44.5788 48.5111 44.6116 48.51 44.6455L48.7273 44.6526ZM50.3078 13.801V44.675C50.3078 44.6816 50.3078 44.6883 50.3076 44.6949C50.3076 44.6981 50.3075 44.7013 50.3074 44.7045C50.2994 44.9485 50.2349 45.1868 50.1197 45.4011C50.1119 45.4157 50.1037 45.43 50.0951 45.4441L22.7575 90.1993H89.6242L62.291 45.4517C62.1475 45.225 62.0686 44.9636 62.0624 44.6957L62.0622 44.675V13.801H50.3078ZM90.1938 90.1993C90.1955 90.1993 90.1973 90.1993 90.199 90.1993H90.1938Z" fill="#1395BF"/>
<path fill-rule="evenodd" clip-rule="evenodd" d="M48.0223 72.9914C46.2663 72.9914 44.8429 74.4149 44.8429 76.1708C44.8429 77.9267 46.2663 79.3501 48.0223 79.3501C49.7782 79.3501 51.2016 77.9267 51.2016 76.1708C51.2016 74.4149 49.7782 72.9914 48.0223 72.9914ZM43.0446 76.1708C43.0446 73.4217 45.2732 71.1931 48.0223 71.1931C50.7713 71.1931 52.9999 73.4217 52.9999 76.1708C52.9999 78.9199 50.7713 81.1485 48.0223 81.1485C45.2732 81.1485 43.0446 78.9199 43.0446 76.1708Z" fill="#F6EAEA"/>
<path fill-rule="evenodd" clip-rule="evenodd" d="M61.5169 61.3117C59.1357 61.3117 57.2053 63.2421 57.2053 65.6234C57.2053 68.0046 59.1357 69.935 61.5169 69.935C63.8982 69.935 65.8286 68.0046 65.8286 65.6234C65.8286 63.2421 63.8982 61.3117 61.5169 61.3117ZM55.407 65.6234C55.407 62.249 58.1425 59.5134 61.5169 59.5134C64.8914 59.5134 67.6269 62.249 67.6269 65.6234C67.6269 68.9978 64.8914 71.7333 61.5169 71.7333C58.1425 71.7333 55.407 68.9978 55.407 65.6234Z" fill="#F6EAEA"/>
<path fill-rule="evenodd" clip-rule="evenodd" d="M58.1225 23.8547C58.1225 23.3581 58.5251 22.9556 59.0217 22.9556H62.9616C63.4582 22.9556 63.8607 23.3581 63.8607 23.8547C63.8607 24.3513 63.4582 24.7539 62.9616 24.7539H59.0217C58.5251 24.7539 58.1225 24.3513 58.1225 23.8547Z" fill="#1395BF"/>
<path fill-rule="evenodd" clip-rule="evenodd" d="M58.1225 32.3586C58.1225 31.862 58.5251 31.4595 59.0217 31.4595H62.0719C62.5685 31.4595 62.9711 31.862 62.9711 32.3586C62.9711 32.8552 62.5685 33.2578 62.0719 33.2578H59.0217C58.5251 33.2578 58.1225 32.8552 58.1225 32.3586Z" fill="#1395BF"/>
<path fill-rule="evenodd" clip-rule="evenodd" d="M77.9464 46.8803C77.0137 46.8803 76.2575 47.6365 76.2575 48.5692C76.2575 49.502 77.0137 50.2581 77.9464 50.2581C78.8792 50.2581 79.6354 49.502 79.6354 48.5692C79.6354 47.6365 78.8792 46.8803 77.9464 46.8803ZM74.4592 48.5692C74.4592 46.6433 76.0205 45.082 77.9464 45.082C79.8724 45.082 81.4337 46.6433 81.4337 48.5692C81.4337 50.4952 79.8724 52.0565 77.9464 52.0565C76.0205 52.0565 74.4592 50.4952 74.4592 48.5692Z" fill="#D5ECDB"/>
</svg>
